<svg width="20" height="20" viewBox="0 0 20 20" fill="none" xmlns="http://www.w3.org/2000/svg">
<path d="M11.3232 3.88574L11.7646 4.56836L12.5234 4.27539L14.7959 3.39844L14.665 5.83203L14.6211 6.64258L15.4062 6.85156L17.7598 7.47754L16.2236 9.36914L15.7119 10L16.2236 10.6309L17.7598 12.5215L15.4062 13.1484L14.6211 13.3574L14.665 14.168L14.7959 16.6006L12.5234 15.7246L11.7646 15.4316L11.3232 16.1143L10 18.1582L8.67676 16.1143L8.23535 15.4316L7.47656 15.7246L5.20312 16.6006L5.33496 14.168L5.37891 13.3574L4.59375 13.1484L2.23926 12.5215L3.77637 10.6309L4.28809 10L3.77637 9.36914L2.23926 7.47754L4.59375 6.85156L5.37891 6.64258L5.33496 5.83203L5.20312 3.39844L7.47656 4.27539L8.23535 4.56836L8.67676 3.88574L10 1.84082L11.3232 3.88574Z" stroke="#C5A461" stroke-width="2"/>
</svg>
